<mxfile host="app.diagrams.net" modified="2024-05-20T10:46:52.696Z" agent="Mozilla/5.0 (X11; Ubuntu; Linux x86_64; rv:125.0) Gecko/20100101 Firefox/125.0" etag="1Barprl7iALuDix7SqIY" version="24.4.2" type="device">
  <diagram name="Page-1" id="PSLNX_h4e4d5SIg3WDxr">
    <mxGraphModel dx="1364" dy="795" grid="1" gridSize="10" guides="1" tooltips="1" connect="1" arrows="1" fold="1" page="1" pageScale="1" pageWidth="827" pageHeight="583" math="0" shadow="0">
      <root>
        <mxCell id="0" />
        <mxCell id="1" parent="0" />
        <mxCell id="ykd5NJYRDbvWMqXcBBqA-40" value="" style="edgeStyle=orthogonalEdgeStyle;rounded=0;orthogonalLoop=1;jettySize=auto;html=1;fontSize=15;" edge="1" parent="1" source="ykd5NJYRDbvWMqXcBBqA-1" target="ykd5NJYRDbvWMqXcBBqA-37">
          <mxGeometry relative="1" as="geometry" />
        </mxCell>
        <mxCell id="ykd5NJYRDbvWMqXcBBqA-1" value="CAN Tx executive" style="rounded=1;whiteSpace=wrap;html=1;fillColor=#dae8fc;strokeColor=#6c8ebf;fontSize=15;" vertex="1" parent="1">
          <mxGeometry x="520" y="320" width="120" height="60" as="geometry" />
        </mxCell>
        <mxCell id="ykd5NJYRDbvWMqXcBBqA-9" value="" style="group;fontSize=15;" vertex="1" connectable="0" parent="1">
          <mxGeometry x="60" y="180" width="140" height="80" as="geometry" />
        </mxCell>
        <mxCell id="ykd5NJYRDbvWMqXcBBqA-2" value="" style="rounded=1;whiteSpace=wrap;html=1;fillColor=#f8cecc;strokeColor=#b85450;fontSize=15;" vertex="1" parent="ykd5NJYRDbvWMqXcBBqA-9">
          <mxGeometry width="120" height="60" as="geometry" />
        </mxCell>
        <mxCell id="ykd5NJYRDbvWMqXcBBqA-3" value="" style="rounded=1;whiteSpace=wrap;html=1;fillColor=#f8cecc;strokeColor=#b85450;fontSize=15;" vertex="1" parent="ykd5NJYRDbvWMqXcBBqA-9">
          <mxGeometry x="10" y="10" width="120" height="60" as="geometry" />
        </mxCell>
        <mxCell id="ykd5NJYRDbvWMqXcBBqA-4" value="rxMailboxes" style="rounded=1;whiteSpace=wrap;html=1;fillColor=#f8cecc;strokeColor=#b85450;fontSize=15;" vertex="1" parent="ykd5NJYRDbvWMqXcBBqA-9">
          <mxGeometry x="20" y="20" width="120" height="60" as="geometry" />
        </mxCell>
        <mxCell id="ykd5NJYRDbvWMqXcBBqA-10" value="" style="group;fontSize=15;" vertex="1" connectable="0" parent="1">
          <mxGeometry x="60" y="300" width="140" height="80" as="geometry" />
        </mxCell>
        <mxCell id="ykd5NJYRDbvWMqXcBBqA-6" value="" style="rounded=1;whiteSpace=wrap;html=1;fillColor=#f8cecc;strokeColor=#b85450;fontSize=15;" vertex="1" parent="ykd5NJYRDbvWMqXcBBqA-10">
          <mxGeometry width="120" height="60" as="geometry" />
        </mxCell>
        <mxCell id="ykd5NJYRDbvWMqXcBBqA-7" value="" style="rounded=1;whiteSpace=wrap;html=1;fillColor=#f8cecc;strokeColor=#b85450;fontSize=15;" vertex="1" parent="ykd5NJYRDbvWMqXcBBqA-10">
          <mxGeometry x="10" y="10" width="120" height="60" as="geometry" />
        </mxCell>
        <mxCell id="ykd5NJYRDbvWMqXcBBqA-8" value="txMailboxes" style="rounded=1;whiteSpace=wrap;html=1;fillColor=#f8cecc;strokeColor=#b85450;fontSize=15;" vertex="1" parent="ykd5NJYRDbvWMqXcBBqA-10">
          <mxGeometry x="20" y="20" width="120" height="60" as="geometry" />
        </mxCell>
        <mxCell id="ykd5NJYRDbvWMqXcBBqA-11" value="CAN Rx executive" style="rounded=1;whiteSpace=wrap;html=1;fillColor=#dae8fc;strokeColor=#6c8ebf;fontSize=15;" vertex="1" parent="1">
          <mxGeometry x="520" y="250" width="120" height="60" as="geometry" />
        </mxCell>
        <mxCell id="ykd5NJYRDbvWMqXcBBqA-13" style="edgeStyle=orthogonalEdgeStyle;rounded=0;orthogonalLoop=1;jettySize=auto;html=1;exitX=0.25;exitY=1;exitDx=0;exitDy=0;entryX=0;entryY=0.5;entryDx=0;entryDy=0;dashed=1;fontSize=15;" edge="1" parent="1" source="ykd5NJYRDbvWMqXcBBqA-12" target="ykd5NJYRDbvWMqXcBBqA-2">
          <mxGeometry relative="1" as="geometry" />
        </mxCell>
        <mxCell id="ykd5NJYRDbvWMqXcBBqA-14" style="edgeStyle=orthogonalEdgeStyle;rounded=0;orthogonalLoop=1;jettySize=auto;html=1;exitX=0.25;exitY=1;exitDx=0;exitDy=0;entryX=0;entryY=0.5;entryDx=0;entryDy=0;dashed=1;fontSize=15;" edge="1" parent="1" source="ykd5NJYRDbvWMqXcBBqA-12" target="ykd5NJYRDbvWMqXcBBqA-6">
          <mxGeometry relative="1" as="geometry" />
        </mxCell>
        <mxCell id="ykd5NJYRDbvWMqXcBBqA-12" value="can message type" style="rounded=1;whiteSpace=wrap;html=1;fillColor=#fff2cc;strokeColor=#d6b656;fontSize=15;" vertex="1" parent="1">
          <mxGeometry x="10" y="50" width="120" height="60" as="geometry" />
        </mxCell>
        <mxCell id="ykd5NJYRDbvWMqXcBBqA-18" value="" style="group;fontSize=15;" vertex="1" connectable="0" parent="1">
          <mxGeometry x="340" y="170" width="140" height="80" as="geometry" />
        </mxCell>
        <mxCell id="ykd5NJYRDbvWMqXcBBqA-15" value="" style="rounded=1;whiteSpace=wrap;html=1;fillColor=#f8cecc;strokeColor=#b85450;fontSize=15;" vertex="1" parent="ykd5NJYRDbvWMqXcBBqA-18">
          <mxGeometry width="120" height="60" as="geometry" />
        </mxCell>
        <mxCell id="ykd5NJYRDbvWMqXcBBqA-16" value="" style="rounded=1;whiteSpace=wrap;html=1;fillColor=#f8cecc;strokeColor=#b85450;fontSize=15;" vertex="1" parent="ykd5NJYRDbvWMqXcBBqA-18">
          <mxGeometry x="10" y="10" width="120" height="60" as="geometry" />
        </mxCell>
        <mxCell id="ykd5NJYRDbvWMqXcBBqA-17" value="canRxFunctions" style="rounded=1;whiteSpace=wrap;html=1;fillColor=#f8cecc;strokeColor=#b85450;fontSize=15;" vertex="1" parent="ykd5NJYRDbvWMqXcBBqA-18">
          <mxGeometry x="20" y="20" width="120" height="60" as="geometry" />
        </mxCell>
        <mxCell id="ykd5NJYRDbvWMqXcBBqA-22" style="edgeStyle=orthogonalEdgeStyle;rounded=0;orthogonalLoop=1;jettySize=auto;html=1;exitX=0.5;exitY=1;exitDx=0;exitDy=0;entryX=0.5;entryY=0;entryDx=0;entryDy=0;fontSize=15;" edge="1" parent="1" source="ykd5NJYRDbvWMqXcBBqA-21" target="ykd5NJYRDbvWMqXcBBqA-2">
          <mxGeometry relative="1" as="geometry" />
        </mxCell>
        <mxCell id="ykd5NJYRDbvWMqXcBBqA-21" value="&lt;div style=&quot;font-size: 15px;&quot;&gt;CAN Rx IRQ handler&lt;/div&gt;&lt;div style=&quot;font-size: 15px;&quot;&gt;[HAL]&lt;br style=&quot;font-size: 15px;&quot;&gt;&lt;/div&gt;" style="rounded=1;whiteSpace=wrap;html=1;fillColor=#dae8fc;strokeColor=#6c8ebf;fontSize=15;" vertex="1" parent="1">
          <mxGeometry x="180" y="50" width="120" height="60" as="geometry" />
        </mxCell>
        <mxCell id="ykd5NJYRDbvWMqXcBBqA-25" style="edgeStyle=orthogonalEdgeStyle;rounded=0;orthogonalLoop=1;jettySize=auto;html=1;exitX=0.5;exitY=1;exitDx=0;exitDy=0;fontSize=15;" edge="1" parent="1" source="ykd5NJYRDbvWMqXcBBqA-23" target="ykd5NJYRDbvWMqXcBBqA-15">
          <mxGeometry relative="1" as="geometry" />
        </mxCell>
        <mxCell id="ykd5NJYRDbvWMqXcBBqA-23" value="CAN Rx msgType callback" style="rounded=1;whiteSpace=wrap;html=1;fillColor=#dae8fc;strokeColor=#6c8ebf;fontSize=15;" vertex="1" parent="1">
          <mxGeometry x="340" y="50" width="120" height="60" as="geometry" />
        </mxCell>
        <mxCell id="ykd5NJYRDbvWMqXcBBqA-27" style="edgeStyle=orthogonalEdgeStyle;rounded=0;orthogonalLoop=1;jettySize=auto;html=1;exitX=0;exitY=0.5;exitDx=0;exitDy=0;fontSize=15;" edge="1" parent="1" source="ykd5NJYRDbvWMqXcBBqA-26" target="ykd5NJYRDbvWMqXcBBqA-23">
          <mxGeometry relative="1" as="geometry" />
        </mxCell>
        <mxCell id="ykd5NJYRDbvWMqXcBBqA-26" value="CAN Rx msgType handler" style="rounded=1;whiteSpace=wrap;html=1;fillColor=#dae8fc;strokeColor=#6c8ebf;fontSize=15;" vertex="1" parent="1">
          <mxGeometry x="520" y="50" width="120" height="60" as="geometry" />
        </mxCell>
        <mxCell id="ykd5NJYRDbvWMqXcBBqA-30" style="edgeStyle=orthogonalEdgeStyle;rounded=0;orthogonalLoop=1;jettySize=auto;html=1;exitX=1;exitY=0.5;exitDx=0;exitDy=0;entryX=0;entryY=0.75;entryDx=0;entryDy=0;fontSize=15;" edge="1" parent="1" source="ykd5NJYRDbvWMqXcBBqA-4" target="ykd5NJYRDbvWMqXcBBqA-11">
          <mxGeometry relative="1" as="geometry">
            <Array as="points">
              <mxPoint x="260" y="230" />
              <mxPoint x="260" y="295" />
            </Array>
          </mxGeometry>
        </mxCell>
        <mxCell id="ykd5NJYRDbvWMqXcBBqA-31" style="edgeStyle=orthogonalEdgeStyle;rounded=0;orthogonalLoop=1;jettySize=auto;html=1;exitX=0.5;exitY=1;exitDx=0;exitDy=0;entryX=0;entryY=0.25;entryDx=0;entryDy=0;fontSize=15;" edge="1" parent="1" source="ykd5NJYRDbvWMqXcBBqA-17" target="ykd5NJYRDbvWMqXcBBqA-11">
          <mxGeometry relative="1" as="geometry">
            <Array as="points">
              <mxPoint x="420" y="265" />
            </Array>
          </mxGeometry>
        </mxCell>
        <mxCell id="ykd5NJYRDbvWMqXcBBqA-33" style="edgeStyle=orthogonalEdgeStyle;rounded=0;orthogonalLoop=1;jettySize=auto;html=1;exitX=0.5;exitY=0;exitDx=0;exitDy=0;entryX=0.5;entryY=1;entryDx=0;entryDy=0;fontSize=15;" edge="1" parent="1" source="ykd5NJYRDbvWMqXcBBqA-32" target="ykd5NJYRDbvWMqXcBBqA-8">
          <mxGeometry relative="1" as="geometry" />
        </mxCell>
        <mxCell id="ykd5NJYRDbvWMqXcBBqA-32" value="&lt;div style=&quot;font-size: 15px;&quot;&gt;CAN queue msg&lt;/div&gt;&lt;div style=&quot;font-size: 15px;&quot;&gt;[INTERFACE]&lt;/div&gt;" style="rounded=1;whiteSpace=wrap;html=1;fillColor=#dae8fc;strokeColor=#6c8ebf;fontSize=15;" vertex="1" parent="1">
          <mxGeometry x="80" y="420" width="120" height="60" as="geometry" />
        </mxCell>
        <mxCell id="ykd5NJYRDbvWMqXcBBqA-34" style="edgeStyle=orthogonalEdgeStyle;rounded=0;orthogonalLoop=1;jettySize=auto;html=1;exitX=1;exitY=0.5;exitDx=0;exitDy=0;entryX=0;entryY=0.5;entryDx=0;entryDy=0;fontSize=15;" edge="1" parent="1" source="ykd5NJYRDbvWMqXcBBqA-8" target="ykd5NJYRDbvWMqXcBBqA-1">
          <mxGeometry relative="1" as="geometry" />
        </mxCell>
        <mxCell id="ykd5NJYRDbvWMqXcBBqA-37" value="&lt;div style=&quot;font-size: 15px;&quot;&gt;CAN add Tx&lt;/div&gt;&lt;div style=&quot;font-size: 15px;&quot;&gt;[HAL]&lt;br style=&quot;font-size: 15px;&quot;&gt;&lt;/div&gt;" style="rounded=1;whiteSpace=wrap;html=1;fillColor=#dae8fc;strokeColor=#6c8ebf;fontSize=15;" vertex="1" parent="1">
          <mxGeometry x="670" y="320" width="120" height="60" as="geometry" />
        </mxCell>
        <mxCell id="ykd5NJYRDbvWMqXcBBqA-41" value="Main loop" style="swimlane;whiteSpace=wrap;html=1;fontSize=15;" vertex="1" parent="1">
          <mxGeometry x="500" y="200" width="150" height="200" as="geometry">
            <mxRectangle x="500" y="200" width="90" height="30" as="alternateBounds" />
          </mxGeometry>
        </mxCell>
        <mxCell id="ykd5NJYRDbvWMqXcBBqA-42" value="CAN hardware&amp;nbsp; driver structure" style="text;html=1;align=center;verticalAlign=middle;whiteSpace=wrap;rounded=0;fontSize=18;" vertex="1" parent="1">
          <mxGeometry x="20" y="10" width="260" height="30" as="geometry" />
        </mxCell>
      </root>
    </mxGraphModel>
  </diagram>
</mxfile>
